<svg id="Capa_1" enable-background="new 0 0 512 512" height="512" viewBox="0 0 512 512" width="512" xmlns="http://www.w3.org/2000/svg"><g><path d="m473.86 225.77-127.84 46.23h-180.29l-151.52-46 241.79-85z" fill="#575f64"/><path d="m473.86 225.77-127.84 46.23h-90.02v-131z" fill="#32393f"/><path d="m180.58 244.89-2.79 78.95c-2.3 7.96-10.62 12.55-18.57 10.25-90.89-26.23-108.7-88.56-150.93-109.67l39.65-4.15c47.67 11.13 89.59 11.91 132.64 24.62z" fill="#dd3400"/><path d="m503.71 224.42c-42.25 21.12-59.96 83.42-150.93 109.67-7.98 2.31-16.28-2.32-18.57-10.25l-2.79-78.96c43.05-12.7 84.96-13.48 132.64-24.61z" fill="#dd3400"/><path d="m497 196c-36.85 0-143.07-150-196-150-17.9 0-34 7.88-45 20.35-11-12.47-27.1-20.35-45-20.35-53.98 0-157.33 150-196 150-8.28 0-15 6.72-15 15s6.72 15 15 15c122.99 0 165.46-60 241-60 75.33 0 118.21 60 241 60 8.28 0 15-6.72 15-15s-6.72-15-15-15z" fill="#ff641a"/><path d="m512 211c0 8.28-6.72 15-15 15-122.79 0-165.67-60-241-60v-99.65c11-12.47 27.1-20.35 45-20.35 52.93 0 159.15 150 196 150 8.28 0 15 6.72 15 15z" fill="#dd3400"/><path d="m351.85 238.88c-.59-4.14-3-8-6.53-10.36-30.57-20.34-48.92-21.01-74.32-11.63l-15 43.08-.01.03-14.99-43.11c-25.4-9.38-52.75-8.71-83.32 11.63-3.51 2.34-5.94 6.23-6.53 10.36-14.01 98.02 3.45 227.12 104.85 227.12 101.42 0 109.79-129.56 95.85-227.12z" fill="#ff641a"/><path d="m256 466v-206.03l15-43.08c25.4-9.38 52.75-8.71 83.32 11.63 3.53 2.36 5.94 6.22 6.53 10.36 13.94 97.56-3.43 227.12-104.85 227.12z" fill="#dd3400"/><path d="m271 216.89v144.11c0 8.28-6.72 15-15 15s-15-6.72-15-15v-144.11c5.9 2.18 11.04 4.64 15 6.74 3.96-2.1 9.1-4.56 15-6.74z" fill="#dd3400"/><path d="m271 216.89v144.11c0 8.28-6.72 15-15 15v-152.37c3.96-2.1 9.1-4.56 15-6.74z" fill="#b62900"/></g></svg>