<svg xmlns="http://www.w3.org/2000/svg" width="19.024" height="17.835" viewBox="0 0 19.024 17.835">
  <g id="cart" transform="translate(0 -2)">
    <path id="Path_963" data-name="Path 963" d="M9.567,27.784A1.784,1.784,0,1,1,7.784,26,1.783,1.783,0,0,1,9.567,27.784Z" transform="translate(-2.433 -9.732)" fill="#707070"/>
    <path id="Path_964" data-name="Path 964" d="M29.567,27.784A1.784,1.784,0,1,1,27.784,26,1.783,1.783,0,0,1,29.567,27.784Z" transform="translate(-10.543 -9.732)" fill="#707070"/>
    <path id="Path_965" data-name="Path 965" d="M17.024,12.689l2-9.5H4.756A1.189,1.189,0,0,0,3.567,2H0V3.189H2.378l.893,7.655a2.378,2.378,0,0,0,1.485,4.235H19.024V13.89H4.756A1.189,1.189,0,0,1,3.567,12.7v-.012Z" fill="#707070"/>
  </g>
</svg>
