<svg xmlns="http://www.w3.org/2000/svg" width="22.478" height="19.669" viewBox="0 0 22.478 19.669">
  <g id="notification" transform="translate(0 -27.706)">
    <path id="Path_1008" data-name="Path 1008" d="M71.218,42.5a4.883,4.883,0,0,1-.352-1.826V36.135a7.011,7.011,0,0,0-4.953-6.677,2.1,2.1,0,0,0-4.143,0,7.011,7.011,0,0,0-4.953,6.677v4.537a4.883,4.883,0,0,1-.352,1.826l-1,2.508a.7.7,0,0,0,.652.963h5.34a2.731,2.731,0,0,0,4.774,0h5.34a.7.7,0,0,0,.652-.963Z" transform="translate(-52.603)" fill="#707070"/>
    <path id="Path_1009" data-name="Path 1009" d="M1.323,117.344a11.231,11.231,0,0,0,0,10.578l1.239-.661a9.831,9.831,0,0,1,0-9.255Z" transform="translate(0 -85.093)" fill="#707070"/>
    <path id="Path_1010" data-name="Path 1010" d="M394.006,117.344l-1.239.661a9.831,9.831,0,0,1,0,9.255l1.239.661a11.231,11.231,0,0,0,0-10.578Z" transform="translate(-372.851 -85.093)" fill="#707070"/>
  </g>
</svg>
