<?xml version="1.0" standalone="no"?>
<!DOCTYPE svg PUBLIC "-//W3C//DTD SVG 20010904//EN"
 "http://www.w3.org/TR/2001/REC-SVG-20010904/DTD/svg10.dtd">
<svg version="1.0" xmlns="http://www.w3.org/2000/svg"
 width="820.000000pt" height="512.000000pt" viewBox="0 0 820.000000 512.000000"
 preserveAspectRatio="xMidYMid meet">
<metadata>
Created by potrace 1.16, written by Peter Selinger 2001-2019
</metadata>
<g transform="translate(0.000000,512.000000) scale(0.100000,-0.100000)"
fill="#000000" stroke="none">
<path d="M2585 4504 c-262 -49 -475 -161 -661 -348 -106 -106 -177 -203 -238
-324 -169 -335 -170 -762 -4 -1097 44 -89 132 -218 194 -284 l54 -59 0 -789 0
-789 23 -44 c13 -26 40 -57 65 -75 l44 -30 222 -3 223 -3 12 58 c17 78 90 226
143 290 130 156 322 245 528 246 314 1 588 -216 666 -529 l17 -65 216 3 c196
3 220 5 256 24 45 23 80 69 95 123 14 50 14 2373 0 2423 -14 50 -55 97 -105
119 -32 15 -65 19 -166 19 l-125 0 -17 107 c-79 492 -450 891 -940 1014 -111
28 -387 35 -502 13z m312 -255 c230 -25 409 -109 574 -266 100 -96 156 -173
214 -295 231 -487 16 -1070 -479 -1298 -144 -66 -229 -84 -406 -84 -160 0
-211 8 -338 55 -358 131 -609 467 -638 856 -12 167 28 353 111 510 167 316
475 511 843 532 12 0 66 -4 119 -10z"/>
<path d="M2750 4025 c-8 -9 -17 -111 -27 -302 l-16 -288 -32 -35 c-56 -61 -68
-126 -36 -196 24 -53 78 -94 133 -101 38 -5 65 -25 216 -155 124 -106 181
-148 199 -148 15 0 38 13 59 34 58 58 54 69 -116 267 -82 96 -149 182 -150
191 0 35 -33 99 -61 121 l-29 23 -10 224 c-12 294 -17 350 -31 366 -15 19 -83
18 -99 -1z"/>
<path d="M4750 2961 c-19 -10 -48 -35 -65 -55 l-30 -38 -3 -1034 c-2 -1122 -5
-1061 51 -1115 26 -25 94 -58 120 -59 11 0 17 8 17 23 0 35 38 144 71 207 89
168 253 296 439 345 144 38 348 15 480 -56 170 -91 303 -258 349 -441 l19 -73
103 -3 c57 -2 121 2 141 8 50 14 97 56 119 105 17 37 19 77 19 565 0 435 -3
536 -16 590 -30 127 -91 228 -339 560 -281 376 -327 429 -397 464 l-52 26
-496 0 c-463 0 -498 -1 -530 -19z m999 -387 c17 -14 124 -155 238 -312 191
-263 273 -392 273 -428 0 -12 -85 -14 -520 -14 l-520 0 0 390 0 390 249 0 249
0 31 -26z"/>
<path d="M3090 997 c-226 -53 -379 -279 -342 -504 24 -145 113 -263 249 -330
76 -37 79 -38 192 -38 109 0 120 2 181 31 95 45 172 120 217 211 34 69 38 85
41 172 3 75 -1 110 -16 157 -55 175 -214 299 -397 310 -38 2 -95 -2 -125 -9z"/>
<path d="M5420 996 c-87 -18 -150 -54 -221 -125 -94 -95 -123 -168 -123 -311
-1 -98 2 -110 32 -174 42 -90 87 -144 158 -191 86 -58 161 -77 269 -72 145 7
254 62 337 171 74 99 106 248 78 368 -39 166 -185 307 -349 338 -67 12 -111
12 -181 -4z"/>
</g>
</svg>
