<?xml version="1.0" standalone="no"?>
<!DOCTYPE svg PUBLIC "-//W3C//DTD SVG 20010904//EN"
 "http://www.w3.org/TR/2001/REC-SVG-20010904/DTD/svg10.dtd">
<svg version="1.0" xmlns="http://www.w3.org/2000/svg"
 width="69.000000pt" height="80.000000pt" viewBox="0 0 69.000000 80.000000"
 preserveAspectRatio="xMidYMid meet">
<metadata>
Created by potrace 1.16, written by Peter Selinger 2001-2019
</metadata>
<g transform="translate(0.000000,80.000000) scale(0.100000,-0.100000)"
fill="#000000" stroke="none">
<path d="M346 654 c-10 -25 -7 -94 4 -94 6 0 10 -7 10 -15 0 -8 -4 -15 -9 -15
-4 0 -11 -25 -15 -56 -10 -86 1 -94 129 -94 65 0 105 4 113 12 19 19 9 284
-10 272 -13 -8 -193 -8 -206 0 -5 3 -13 -1 -16 -10z"/>
</g>
</svg>
