<?xml version="1.0" standalone="no"?>
<!DOCTYPE svg PUBLIC "-//W3C//DTD SVG 20010904//EN"
 "http://www.w3.org/TR/2001/REC-SVG-20010904/DTD/svg10.dtd">
<svg version="1.0" xmlns="http://www.w3.org/2000/svg"
 width="840.000000pt" height="859.000000pt" viewBox="0 0 840.000000 859.000000"
 preserveAspectRatio="xMidYMid meet">
<metadata>
Created by potrace 1.16, written by Peter Selinger 2001-2019
</metadata>
<g transform="translate(0.000000,859.000000) scale(0.100000,-0.100000)"
fill="#000000" stroke="none">
<path d="M3060 8370 c0 -5 -68 -11 -157 -14 -202 -6 -305 -15 -317 -27 -6 -5
-34 -9 -62 -9 -29 0 -56 -4 -59 -10 -3 -5 -24 -10 -46 -10 -21 0 -39 -4 -39
-10 0 -5 -16 -10 -35 -10 -19 0 -43 -4 -53 -9 -9 -6 -84 -31 -167 -57 -82 -27
-151 -52 -153 -56 -2 -4 -15 -8 -28 -8 -13 0 -24 -4 -24 -10 0 -5 -11 -10 -25
-10 -14 0 -25 -4 -25 -10 0 -5 -9 -10 -20 -10 -11 0 -20 -4 -20 -10 0 -5 -11
-10 -25 -10 -14 0 -25 -4 -25 -10 0 -5 -9 -10 -20 -10 -11 0 -20 -4 -20 -10 0
-5 -9 -10 -20 -10 -11 0 -20 -4 -20 -10 0 -5 -9 -10 -20 -10 -11 0 -20 -4 -20
-10 0 -5 -9 -10 -20 -10 -11 0 -20 -3 -20 -8 0 -4 -21 -18 -47 -32 -45 -23
-134 -79 -159 -99 -5 -4 -21 -14 -35 -21 -13 -7 -31 -21 -40 -32 -9 -10 -23
-18 -30 -18 -8 0 -21 -9 -29 -20 -8 -11 -20 -20 -27 -20 -7 0 -13 -4 -13 -10
0 -5 -6 -10 -13 -10 -7 0 -19 -9 -27 -20 -8 -11 -18 -20 -22 -20 -4 0 -29 -20
-54 -45 -26 -25 -56 -47 -66 -51 -10 -3 -18 -10 -18 -15 0 -13 -167 -179 -180
-179 -5 0 -10 -3 -10 -7 0 -5 -16 -26 -36 -48 -19 -22 -46 -52 -60 -68 -13
-15 -24 -31 -24 -35 0 -4 -9 -14 -20 -22 -11 -8 -20 -20 -20 -27 0 -7 -4 -13
-10 -13 -5 0 -10 -6 -10 -13 0 -7 -9 -19 -20 -27 -11 -8 -20 -20 -20 -28 0 -7
-11 -24 -25 -38 -14 -14 -25 -29 -25 -34 0 -5 -6 -15 -13 -22 -18 -19 -84
-120 -98 -151 -7 -15 -16 -27 -21 -27 -4 0 -8 -9 -8 -20 0 -11 -4 -20 -10 -20
-5 0 -10 -9 -10 -20 0 -11 -4 -20 -10 -20 -5 0 -10 -9 -10 -20 0 -11 -4 -20
-10 -20 -5 0 -10 -9 -10 -20 0 -11 -4 -20 -10 -20 -5 0 -10 -9 -10 -20 0 -11
-4 -20 -10 -20 -5 0 -10 -9 -10 -20 0 -11 -4 -20 -10 -20 -5 0 -10 -11 -10
-25 0 -14 -4 -25 -10 -25 -5 0 -10 -9 -10 -20 0 -11 -4 -20 -8 -20 -5 0 -15
-22 -22 -50 -7 -27 -17 -50 -22 -50 -4 0 -8 -13 -8 -28 0 -15 -4 -32 -9 -37
-5 -6 -16 -35 -25 -65 -10 -30 -21 -64 -26 -75 -9 -21 -18 -58 -27 -112 -3
-18 -9 -33 -14 -33 -5 0 -9 -20 -9 -44 0 -25 -4 -48 -10 -51 -5 -3 -10 -28
-10 -54 0 -26 -4 -51 -9 -56 -12 -12 -21 -102 -27 -267 -3 -71 -9 -128 -15
-128 -12 0 -12 -237 1 -245 6 -4 10 -54 10 -119 0 -61 4 -116 9 -121 5 -6 12
-39 15 -75 12 -136 18 -180 27 -180 5 0 9 -18 9 -39 0 -22 4 -43 10 -46 5 -3
10 -17 10 -30 0 -13 4 -34 9 -47 5 -13 26 -77 47 -143 20 -66 41 -124 46 -130
4 -5 8 -17 8 -27 0 -10 5 -18 10 -18 6 0 10 -11 10 -24 0 -14 5 -28 10 -31 6
-3 10 -15 10 -26 0 -10 5 -19 10 -19 6 0 10 -9 10 -20 0 -11 5 -20 10 -20 6 0
10 -11 10 -25 0 -14 5 -25 10 -25 6 0 10 -9 10 -20 0 -11 5 -20 10 -20 6 0 10
-9 10 -20 0 -11 5 -20 10 -20 6 0 10 -9 10 -20 0 -11 5 -20 10 -20 6 0 10 -9
10 -20 0 -11 5 -20 10 -20 6 0 10 -9 10 -20 0 -11 4 -20 8 -20 5 0 14 -11 20
-25 7 -14 16 -31 22 -38 23 -28 80 -117 80 -126 0 -5 4 -11 8 -13 5 -1 23 -25
42 -53 19 -27 42 -57 52 -66 10 -9 18 -22 18 -28 0 -7 18 -30 40 -51 22 -21
40 -43 40 -49 0 -14 305 -319 350 -351 19 -13 37 -27 40 -30 3 -3 27 -24 55
-45 27 -22 59 -48 69 -57 11 -10 25 -18 31 -18 6 0 17 -9 25 -20 8 -11 21 -20
30 -20 9 0 22 -9 30 -20 8 -11 21 -20 30 -20 9 0 22 -9 30 -20 8 -11 22 -20
32 -20 10 0 18 -4 18 -10 0 -5 7 -10 15 -10 8 0 15 -4 15 -10 0 -5 9 -10 20
-10 11 0 20 -4 20 -10 0 -5 9 -10 19 -10 11 0 21 -4 23 -8 5 -14 146 -84 156
-78 6 3 9 155 7 378 -3 445 -1 408 -23 408 -10 0 -24 9 -32 20 -8 11 -21 20
-28 20 -8 0 -27 14 -42 30 -15 17 -32 30 -37 30 -5 0 -18 8 -29 18 -10 9 -50
44 -89 77 -95 82 -195 182 -195 196 0 6 -17 27 -38 47 -20 20 -50 55 -67 77
-16 22 -35 46 -42 53 -7 7 -13 17 -13 21 0 4 -11 21 -25 37 -14 16 -25 35 -25
42 0 6 -4 12 -9 12 -5 0 -14 14 -21 30 -7 17 -16 30 -21 30 -5 0 -9 9 -9 20 0
11 -4 20 -10 20 -5 0 -10 9 -10 20 0 11 -4 20 -10 20 -5 0 -10 7 -10 15 0 8
-4 15 -10 15 -5 0 -10 9 -10 20 0 11 -4 20 -10 20 -5 0 -10 9 -10 20 0 11 -4
20 -10 20 -5 0 -10 6 -10 13 0 7 -9 32 -20 55 -11 22 -20 48 -20 56 0 8 -4 16
-9 18 -8 3 -65 166 -90 258 -7 25 -17 59 -22 76 -5 17 -9 47 -9 67 0 20 -5 39
-10 42 -5 3 -10 30 -10 60 0 30 -4 57 -10 60 -13 8 -14 577 -1 591 5 5 12 36
15 69 8 96 17 149 27 160 5 5 9 24 9 41 0 18 4 36 10 39 5 3 10 15 10 26 0 35
57 193 101 281 5 10 9 25 9 33 0 8 5 15 10 15 6 0 10 9 10 20 0 11 5 20 10 20
6 0 10 9 10 20 0 11 5 20 10 20 6 0 10 9 10 20 0 11 5 20 10 20 6 0 10 9 10
20 0 11 5 20 10 20 6 0 10 9 10 20 0 11 5 20 10 20 6 0 10 7 10 15 0 9 9 25
20 37 11 12 20 28 20 35 0 7 5 13 10 13 6 0 10 7 10 15 0 8 5 15 10 15 6 0 10
6 10 13 0 6 11 26 25 42 13 17 28 35 32 40 102 131 105 134 230 258 121 121
160 157 173 157 6 0 10 5 10 10 0 6 5 10 10 10 6 0 21 9 33 20 67 61 90 80
108 85 10 4 19 11 19 16 0 5 6 9 13 9 7 0 23 9 35 20 12 11 28 20 37 20 8 0
15 5 15 10 0 6 7 10 15 10 8 0 15 5 15 10 0 6 9 10 20 10 11 0 20 5 20 10 0 6
9 10 20 10 11 0 20 5 20 10 0 6 9 10 20 10 11 0 20 5 20 10 0 6 9 10 20 10 11
0 20 5 20 10 0 6 9 10 20 10 11 0 20 5 20 10 0 6 9 10 19 10 11 0 23 5 26 10
3 6 15 10 26 10 10 0 27 4 37 9 9 5 31 14 47 21 17 7 44 19 60 26 62 28 297
82 395 90 30 3 64 9 75 15 26 13 520 5 600 -9 33 -6 85 -16 115 -21 90 -16
245 -57 306 -82 16 -6 40 -16 54 -21 14 -6 33 -14 42 -19 10 -5 27 -9 38 -9
11 0 20 -4 20 -10 0 -5 9 -10 20 -10 11 0 20 -4 20 -10 0 -5 9 -10 20 -10 11
0 20 -4 20 -10 0 -5 9 -10 20 -10 11 0 20 -4 20 -10 0 -5 11 -10 25 -10 14 0
25 -4 25 -10 0 -5 9 -10 20 -10 11 0 20 -4 20 -8 0 -5 16 -14 35 -22 19 -8 35
-17 35 -22 0 -4 7 -8 15 -8 8 0 15 -4 15 -9 0 -5 8 -11 18 -14 22 -7 70 -37
96 -60 12 -9 39 -33 61 -52 22 -19 43 -35 48 -35 8 0 43 -30 118 -100 26 -25
66 -61 88 -80 22 -19 41 -38 41 -42 0 -4 23 -31 51 -60 27 -29 60 -66 72 -82
12 -15 32 -39 45 -52 12 -12 22 -27 22 -31 0 -4 14 -24 30 -43 16 -19 30 -41
30 -47 0 -7 5 -13 10 -13 6 0 10 -7 10 -15 0 -8 5 -15 10 -15 6 0 10 -9 10
-20 0 -11 5 -20 10 -20 6 0 10 -8 10 -18 0 -10 9 -24 20 -32 11 -8 20 -22 20
-32 0 -10 5 -18 10 -18 6 0 10 -9 10 -20 0 -11 5 -20 10 -20 6 0 10 -9 10 -20
0 -11 5 -20 10 -20 6 0 10 -8 10 -18 0 -10 4 -22 8 -27 15 -17 72 -154 97
-233 14 -43 29 -91 35 -108 5 -17 10 -40 10 -52 0 -11 5 -24 10 -27 6 -3 10
-26 10 -51 0 -24 4 -44 9 -44 10 0 20 -72 27 -212 3 -54 10 -98 15 -98 5 0 9
-66 9 -155 0 -97 -4 -155 -10 -155 -6 0 -10 -37 -10 -90 0 -53 -4 -90 -10 -90
-6 0 -10 -27 -10 -60 0 -33 -4 -60 -10 -60 -5 0 -10 -20 -10 -45 0 -25 -4 -45
-10 -45 -5 0 -10 -15 -10 -34 0 -19 -4 -38 -10 -41 -5 -3 -10 -15 -10 -26 0
-10 -4 -27 -9 -37 -5 -9 -15 -37 -22 -62 -12 -42 -24 -71 -78 -192 -11 -26
-21 -52 -21 -58 0 -5 -4 -10 -10 -10 -5 0 -10 -9 -10 -20 0 -11 -4 -20 -10
-20 -5 0 -10 -9 -10 -20 0 -11 -4 -20 -10 -20 -5 0 -10 -9 -10 -20 0 -11 -4
-20 -10 -20 -5 0 -10 -8 -10 -18 0 -10 -9 -24 -20 -32 -11 -8 -20 -22 -20 -32
0 -10 -4 -18 -10 -18 -5 0 -10 -6 -10 -13 0 -7 -9 -23 -20 -35 -11 -12 -20
-25 -20 -29 0 -4 -11 -20 -24 -36 -13 -15 -34 -43 -47 -62 -13 -19 -28 -35
-32 -35 -5 0 -5 -4 -2 -10 7 -11 821 -15 849 -4 9 3 16 15 16 25 0 10 5 19 10
19 6 0 10 9 10 20 0 11 5 20 10 20 6 0 10 9 10 20 0 11 5 20 10 20 6 0 10 9
10 20 0 11 5 20 10 20 6 0 10 9 10 20 0 11 4 20 8 20 4 0 14 21 21 48 8 26 17
49 20 52 7 6 21 41 59 150 15 41 30 77 35 78 4 2 7 21 7 43 0 21 5 39 10 39 6
0 10 13 10 29 0 17 5 33 10 36 6 3 10 24 10 45 0 21 5 42 10 45 6 3 10 26 10
51 0 24 5 44 10 44 6 0 10 25 10 55 0 30 5 55 10 55 6 0 10 32 10 75 0 43 4
75 10 75 6 0 10 115 10 325 0 210 -4 325 -10 325 -6 0 -10 33 -10 80 0 47 -4
80 -10 80 -5 0 -10 25 -10 55 0 30 -4 55 -10 55 -5 0 -10 23 -10 50 0 28 -4
50 -10 50 -5 0 -10 18 -10 40 0 22 -4 40 -10 40 -5 0 -10 13 -10 29 0 17 -4
33 -10 36 -5 3 -10 17 -10 31 0 13 -4 32 -9 42 -5 9 -20 51 -33 92 -12 41 -29
81 -35 88 -7 7 -13 20 -13 28 0 8 -4 22 -9 32 -5 9 -19 40 -31 67 -12 28 -31
67 -41 88 -11 22 -19 45 -19 53 0 8 -4 14 -10 14 -5 0 -10 8 -10 18 0 10 -9
24 -20 32 -11 8 -20 22 -20 32 0 10 -4 18 -10 18 -5 0 -10 9 -10 20 0 11 -4
20 -10 20 -5 0 -10 9 -10 20 0 11 -4 20 -8 20 -5 0 -19 20 -32 45 -13 25 -26
45 -30 45 -4 0 -12 11 -18 25 -7 14 -17 31 -22 38 -38 45 -50 61 -50 67 0 5
-14 22 -30 40 -17 18 -38 45 -47 61 -10 16 -21 29 -25 29 -4 0 -8 5 -8 10 0 6
-20 30 -44 55 -24 24 -47 53 -51 64 -3 12 -10 21 -15 21 -5 0 -51 42 -103 93
-52 50 -120 115 -152 142 -31 28 -63 56 -70 63 -8 6 -17 12 -22 12 -5 0 -15 9
-23 20 -8 11 -20 20 -27 20 -7 0 -13 5 -13 10 0 6 -7 10 -15 10 -8 0 -15 5
-15 10 0 6 -7 10 -15 10 -8 0 -15 4 -15 8 0 5 -12 15 -27 23 -16 8 -35 22 -44
31 -9 10 -23 18 -32 18 -8 0 -17 3 -19 8 -5 11 -115 82 -127 82 -6 0 -11 3
-11 8 0 4 -25 18 -55 32 -30 14 -55 28 -55 33 0 4 -13 7 -30 7 -16 0 -30 5
-30 10 0 6 -9 10 -20 10 -11 0 -20 5 -20 10 0 6 -9 10 -20 10 -11 0 -20 5 -20
10 0 6 -9 10 -20 10 -11 0 -20 5 -20 10 0 6 -7 10 -15 10 -8 0 -23 4 -33 9 -9
5 -30 14 -47 21 -16 7 -39 16 -50 21 -11 5 -72 25 -135 44 -63 20 -125 41
-138 46 -13 5 -36 9 -52 9 -16 0 -31 4 -34 9 -6 9 -47 17 -141 27 -27 3 -54
10 -59 15 -6 5 -41 9 -78 9 -39 0 -68 4 -68 10 0 6 -62 10 -165 10 -103 0
-165 4 -165 10 0 6 -4 10 -10 10 -5 0 -10 -4 -10 -10z"/>
<path d="M3678 6100 l-527 -529 -88 -4 c-48 -3 -102 -8 -120 -12 -30 -7 -37
-2 -142 104 -61 61 -111 115 -111 120 0 5 -79 88 -175 185 -96 97 -175 179
-175 182 0 4 -31 38 -69 78 -38 39 -87 90 -109 114 -22 23 -46 42 -52 42 -10
0 -83 -72 -152 -149 l-27 -30 109 -111 c59 -60 139 -144 177 -187 37 -42 126
-135 196 -207 71 -72 138 -144 150 -160 12 -15 55 -61 95 -102 62 -63 72 -79
72 -109 0 -19 -4 -35 -10 -35 -6 0 -10 -28 -10 -65 0 -37 4 -65 10 -65 6 0 10
-13 10 -30 0 -16 5 -30 10 -30 6 0 10 -9 10 -20 0 -11 5 -20 10 -20 6 0 10 -7
10 -15 0 -28 123 -135 154 -135 9 0 16 -4 16 -9 0 -17 121 -27 190 -15 65 11
200 93 200 121 0 5 9 15 20 23 11 8 20 22 20 32 0 10 5 18 10 18 6 0 10 14 10
30 0 17 5 30 10 30 6 0 10 37 10 90 0 53 -4 90 -10 90 -44 0 24 75 515 565
l524 525 -108 110 c-59 60 -112 110 -117 109 -5 0 -246 -238 -536 -529z"/>
<path d="M2343 3465 c-27 -28 -43 -54 -43 -69 0 -14 -4 -28 -10 -31 -14 -9
-14 -2351 0 -2360 6 -3 10 -15 10 -26 0 -23 17 -55 47 -86 21 -22 28 -23 178
-23 175 0 185 -3 185 -64 0 -20 5 -36 10 -36 6 0 10 -16 10 -35 0 -19 5 -35
10 -35 6 0 10 -9 10 -20 0 -11 9 -35 20 -55 11 -20 20 -40 20 -46 0 -6 6 -16
13 -23 6 -8 19 -23 27 -36 37 -54 78 -98 152 -166 13 -11 44 -31 68 -45 25
-13 47 -27 48 -31 2 -5 12 -8 23 -8 10 0 19 -4 19 -10 0 -5 9 -10 19 -10 11 0
23 -4 26 -10 3 -5 19 -10 36 -10 16 0 29 -4 29 -10 0 -5 23 -10 50 -10 28 0
50 -4 50 -10 0 -6 40 -10 100 -10 60 0 100 4 100 10 0 6 20 10 45 10 25 0 45
5 45 10 0 6 18 10 40 10 22 0 40 5 40 10 0 6 9 10 20 10 11 0 20 5 20 10 0 6
9 10 19 10 11 0 21 4 23 8 2 4 24 20 49 34 53 31 199 170 199 190 0 8 9 20 20
28 11 8 20 22 20 31 0 10 3 19 8 21 12 5 52 88 52 108 0 11 4 21 9 24 4 3 11
23 15 43 3 21 11 55 16 75 l11 38 584 0 c394 0 584 3 587 10 4 12 793 24 891
13 l57 -6 0 -58 c0 -33 4 -59 10 -59 6 0 10 -16 10 -35 0 -19 5 -35 10 -35 6
0 10 -13 10 -30 0 -16 5 -30 10 -30 6 0 10 -9 10 -20 0 -11 5 -20 10 -20 6 0
10 -9 10 -20 0 -11 5 -20 10 -20 6 0 10 -7 10 -15 0 -29 172 -203 226 -227 13
-6 24 -15 24 -20 0 -4 9 -8 20 -8 11 0 20 -4 20 -10 0 -5 9 -10 20 -10 11 0
20 -4 20 -10 0 -5 9 -10 20 -10 11 0 20 -4 20 -10 0 -5 14 -10 30 -10 17 0 30
-4 30 -10 0 -5 25 -10 55 -10 30 0 55 -4 55 -10 0 -6 40 -10 100 -10 60 0 100
4 100 10 0 6 20 10 45 10 25 0 45 5 45 10 0 6 15 10 34 10 19 0 38 5 41 10 3
6 15 10 26 10 10 0 19 5 19 10 0 6 7 10 15 10 9 0 21 5 28 10 7 6 32 24 57 40
58 37 190 164 190 182 0 7 9 20 20 28 11 8 20 22 20 32 0 10 5 18 10 18 6 0
10 9 10 20 0 11 5 20 10 20 6 0 10 9 10 20 0 11 5 20 10 20 6 0 10 11 10 24 0
14 4 27 9 30 8 6 13 30 27 133 4 27 11 42 22 45 10 1 140 3 289 3 l273 0 0
258 0 257 -60 0 -60 0 -2 292 -3 293 -65 13 c-36 7 -90 17 -120 23 -30 6 -80
13 -110 16 -30 2 -59 9 -65 14 -5 5 -33 9 -62 9 -29 0 -53 5 -53 10 0 6 -27
10 -60 10 -33 0 -60 4 -60 10 0 6 -25 10 -55 10 -30 0 -55 5 -55 10 0 6 -27
10 -60 10 -33 0 -60 4 -60 10 0 6 -27 10 -60 10 -33 0 -60 4 -60 10 0 6 -27
10 -60 10 -33 0 -60 4 -60 10 0 6 -14 10 -31 10 -33 0 -59 19 -59 44 0 9 -4
16 -10 16 -5 0 -10 9 -10 19 0 11 -4 23 -10 26 -5 3 -10 15 -10 26 0 10 -4 19
-10 19 -5 0 -10 9 -10 20 0 11 -4 20 -10 20 -5 0 -10 9 -10 20 0 11 -4 20 -10
20 -5 0 -10 9 -10 20 0 11 -4 20 -10 20 -5 0 -10 9 -10 20 0 11 -4 20 -10 20
-5 0 -10 9 -10 20 0 11 -4 20 -10 20 -5 0 -10 9 -10 20 0 11 -4 20 -10 20 -5
0 -10 6 -10 14 0 8 -18 47 -40 87 -22 41 -48 91 -56 112 -9 20 -20 37 -25 37
-5 0 -9 7 -9 15 0 8 -9 30 -20 50 -11 20 -20 42 -20 50 0 8 -4 15 -10 15 -5 0
-10 9 -10 20 0 11 -4 20 -10 20 -5 0 -10 9 -10 20 0 11 -4 20 -10 20 -5 0 -10
7 -10 16 0 23 -25 44 -54 44 -14 0 -28 5 -31 10 -4 6 -205 10 -570 10 l-564 0
-4 108 c-6 121 -15 182 -28 182 -5 0 -9 7 -9 15 0 20 -45 65 -65 65 -8 0 -15
5 -15 10 0 7 -500 10 -1482 9 l-1483 0 -42 -44z m4123 -650 c9 -8 35 -59 60
-112 24 -54 49 -106 54 -115 6 -10 10 -25 10 -33 0 -8 4 -15 8 -15 5 0 15 -22
22 -50 7 -27 17 -50 22 -50 4 0 8 -9 8 -20 0 -11 5 -20 10 -20 6 0 10 -9 10
-20 0 -11 5 -20 10 -20 6 0 10 -11 10 -25 0 -14 6 -25 13 -25 8 0 7 -4 -3 -10
-9 -6 -217 -10 -537 -10 l-521 0 -6 73 c-3 39 -8 161 -12 270 l-6 197 417 0
c356 0 419 -2 431 -15z m-2839 -1475 c65 -30 70 -33 132 -91 50 -45 106 -157
121 -239 15 -81 0 -170 -41 -252 -33 -65 -136 -178 -163 -178 -9 0 -16 -4 -16
-10 0 -5 -9 -10 -20 -10 -11 0 -20 -4 -20 -10 0 -5 -13 -10 -30 -10 -16 0 -30
-4 -30 -10 0 -6 -42 -10 -105 -10 -63 0 -105 4 -105 10 0 6 -16 10 -35 10 -19
0 -35 3 -35 8 0 4 -14 13 -32 21 -61 27 -168 133 -168 166 0 8 -4 15 -10 15
-5 0 -10 9 -10 20 0 11 -4 20 -10 20 -5 0 -10 14 -10 30 0 17 -4 30 -10 30 -6
0 -10 38 -10 95 0 57 4 95 10 95 6 0 10 14 10 30 0 17 5 30 10 30 6 0 10 9 10
20 0 11 5 20 10 20 6 0 10 7 10 16 0 9 8 24 18 33 9 9 23 27 30 41 23 44 181
134 252 143 80 11 184 -3 247 -33z m3572 8 c85 -36 191 -120 191 -152 0 -8 3
-16 8 -18 12 -5 52 -88 52 -108 0 -11 5 -22 10 -25 6 -3 10 -48 10 -101 0 -56
-4 -94 -10 -94 -5 0 -10 -13 -10 -30 0 -16 -4 -30 -10 -30 -5 0 -10 -6 -10
-13 0 -18 -24 -67 -32 -67 -5 0 -8 -5 -8 -11 0 -15 -110 -119 -126 -119 -8 0
-14 -4 -14 -10 0 -5 -9 -10 -20 -10 -11 0 -20 -4 -20 -10 0 -5 -13 -10 -30
-10 -16 0 -30 -4 -30 -10 0 -6 -43 -10 -110 -10 -67 0 -110 4 -110 10 0 6 -13
10 -30 10 -16 0 -30 5 -30 10 0 6 -9 10 -20 10 -11 0 -20 5 -20 10 0 6 -7 10
-15 10 -17 0 -125 104 -125 120 0 5 -4 10 -10 10 -5 0 -10 9 -10 20 0 11 -4
20 -10 20 -5 0 -10 9 -10 20 0 11 -4 20 -10 20 -5 0 -10 14 -10 30 0 17 -4 30
-10 30 -14 0 -13 172 1 207 34 83 53 119 70 134 11 9 19 22 19 29 0 15 55 67
81 75 10 4 19 10 19 14 0 4 19 16 43 26 23 9 51 21 62 26 56 24 215 17 284
-13z"/>
</g>
</svg>
